# xmcd
# Copyright (C) 1995-1998 Ti Kan
#
# Track frame offsets:
#       150
#       16212
#       35990
#       50122
#       68380
#       83790
#       100170
#       119880
#       138347
#       152622
#       167980
#       186295
#       206805
#       227355
#
# Disc length: 3652 seconds
#
# Revision: 0
# Processed by: cddbd v1.4PL0 Copyright (c) Steve Scherf et al.
# Submitted via: CD-Transfer v1.0
#
DISCID=c20e420e
DTITLE=Adrian Sturzenegger - Adrenalin
DYEAR=1900
DGENRE=
TTITLE0=Symptomatic
TTITLE1=Yesterday
TTITLE2=A Little Secret
TTITLE3=The Simple Way You Smile
TTITLE4=Heaven Can Wait
TTITLE5=So Whatever
TTITLE6=The Prisoner and The Thief
TTITLE7=All Is Quiet
TTITLE8=So Sorry
TTITLE9=Out Of This Rain
TTITLE10=Let You Know
TTITLE11=Mr. Lonely
TTITLE12=Sun
TTITLE13=Close To Your Heart
EXTD=
EXTT0=
EXTT1=
EXTT2=
EXTT3=
EXTT4=
EXTT5=
EXTT6=
EXTT7=
EXTT8=
EXTT9=
EXTT10=
EXTT11=
EXTT12=
EXTT13=
PLAYORDER=
